<svg id="Layer_1" data-name="Layer 1" xmlns="http://www.w3.org/2000/svg" viewBox="0 0 816.48 270.92"><defs><style>.cls-1{fill:#f36f27;}.cls-2{fill:#282973;}</style></defs><path class="cls-1" d="M792.64,56.28c5,29.36-9.2,66.29-44.4,79.26-16.46,6.06-35,6.44-52.5,9.77-9.3,1.77-18.86,3.33-27.56,6.82-12.86,5.18-15.21,12.37-10.68,25.49.49,1.44.22,3.15.35,5.68-2.67-.76-4.83-.79-6.19-1.84-18.08-14-32.55-30.54-36.38-54-3.37-20.7,5-33,25.23-38.3,1.35-.35,2.66-.87,1.87-.61,1.62-10.9,2.75-20.36,4.47-29.71,2.22-12.07-3.46-20.6-13-28.3C645.62,31.59,654,41,656.8,52.47c1.7,7,5.69,13.49,8.65,20.21,2.38,5.41,6.28,10.69,6.81,16.28,1.19,12.51-8.43,19.63-20.75,16.6a58.83,58.83,0,0,0-5.85-1.57c-2.27-.3-5.52-1.15-6.71,0-2.88,2.72-6.45,6.27-6.81,9.78-.84,8.17.28,17,8.64,21,3.17,1.55,8.34-.72,12.51-1.67,1.15-.27,2.21-1.9,2.88-3.13,6.63-12.18,17.79-16.48,30.67-18.45,40.69-6.23,76.68-21.59,103.58-54.25C790.74,56.9,791.43,56.81,792.64,56.28Z"/><path class="cls-2" d="M688.91,242.46c2.06-20.94.09-38.84-14.73-54.91-12.9-14-7-28.72,11.85-31.79,9.59-1.56,19.62-1.34,29.37-.74,16.66,1,31.3-3.74,44.68-13.27,1.61-1.14,3.35-2.09,5.34-3.32-4.86,29.2-27.53,48.25-57.25,48.91-3.17.07-7.82.76-9,2.79s1.48,6,2,9.21c.81,5.19,3.07,11.1,1.47,15.52C699.13,224.46,693.6,233.31,688.91,242.46Z"/><path class="cls-2" d="M34.43,147.91V88H68.88v9.37H45.32v17H65.16v9.37H45.32v24.23Z"/><path class="cls-2" d="M96,147.91V88h10.89v50.57h25.92v9.37Z"/><path class="cls-2" d="M195.16,147.91l-5.06-15.36h-21L164,147.91H152.79L173.89,88h11.4l21.1,59.94ZM179.72,98.36h-.17a89.29,89.29,0,0,1-2.54,9.28l-5.31,16h15.7l-5.32-16Z"/><path class="cls-2" d="M229.1,147.91,234,88h11.65l11.73,29.64,3,8.77h.17c1.07-3.48,2.05-6.41,3-8.77L275.28,88h11.65l4.81,59.94H280.93L278.4,114.4l-.08-9.29h-.17q-1.77,5.82-3.21,9.29l-9.71,23.21h-9.54l-9.62-23.21L242.78,105h-.17q.16,5.4-.09,9.37L240,147.91Z"/><path class="cls-2" d="M322,147.91V88h10.89v59.94Z"/><path class="cls-2" d="M364.93,147.91V88h10.89l22.71,34.62a43.45,43.45,0,0,1,2.23,3.84c.82,1.55,1.48,2.85,2,3.92l.76,1.52h.17a92.91,92.91,0,0,1-.59-9.28V88h10.8v59.94h-10.8l-22.71-34.53a43.25,43.25,0,0,1-2.24-3.84c-.82-1.54-1.48-2.83-2-3.84l-.76-1.6h-.17q.58,5.75.59,9.28v34.53Z"/><path class="cls-2" d="M441.92,117.86a30,30,0,0,1,8.82-22Q459.56,87,472.82,87a38.64,38.64,0,0,1,7.93.8,33,33,0,0,1,6.29,1.9,45.9,45.9,0,0,1,4.39,2.2,22.87,22.87,0,0,1,2.83,1.85l.84.85-5.4,8.1c-.51-.45-1.2-1-2.07-1.6a29.16,29.16,0,0,0-5.49-2.53,23.23,23.23,0,0,0-8.4-1.61q-9.71,0-15.15,5.87a20.81,20.81,0,0,0-5.44,14.73q0,9.54,5.74,15.49a19.09,19.09,0,0,0,14.35,6,20.2,20.2,0,0,0,7.81-1.56,18,18,0,0,0,5.44-3.17l1.77-1.51v-7h-9.2v-9.37h19v31.57h-9.29V145l.08-2.53h-.16c-.17.17-.43.39-.76.67s-1.06.81-2.16,1.57a21.34,21.34,0,0,1-3.54,2,29,29,0,0,1-10.93,2.19,28.18,28.18,0,0,1-20.81-8.65Q441.91,131.62,441.92,117.86Z"/><path class="cls-2" d="M522.88,117.52a29.39,29.39,0,0,1,8.9-21.74,32,32,0,0,1,44.15,0,29.39,29.39,0,0,1,8.91,21.74,30.64,30.64,0,0,1-8.91,22.33,31.4,31.4,0,0,1-44.15,0A30.63,30.63,0,0,1,522.88,117.52Zm11.22,0a21.56,21.56,0,0,0,5.74,15.32,19.11,19.11,0,0,0,28,0,21.51,21.51,0,0,0,5.74-15.32,20.25,20.25,0,0,0-5.74-14.69,19.57,19.57,0,0,0-28,0A20.29,20.29,0,0,0,534.1,117.52Z"/><path class="cls-1" d="M216.73,209.9a16.69,16.69,0,0,1-12.17-4.63,17.13,17.13,0,0,1,.09-23.75q4.84-4.7,12.66-4.7a18.83,18.83,0,0,1,9.8,2.31q.19,4.56.36,6.79h-1.81q-1.66-7.29-9.11-7.29a9.66,9.66,0,0,0-7.93,3.51q-2.87,3.51-2.86,9.7,0,6.89,3.84,11.23a12.31,12.31,0,0,0,9.63,4.35c3.65,0,6.31-.9,8-2.7l1,1.05a12.22,12.22,0,0,1-4.65,2.95A18.88,18.88,0,0,1,216.73,209.9Z"/><path class="cls-1" d="M251.24,209.9a15.3,15.3,0,0,1-11.48-4.68,16.2,16.2,0,0,1-4.52-11.72,16.57,16.57,0,0,1,4.57-11.86,16.37,16.37,0,0,1,23.08-.12,16.26,16.26,0,0,1,4.52,11.73,16.58,16.58,0,0,1-4.57,11.84A15.32,15.32,0,0,1,251.24,209.9Zm.83-1.82a8.27,8.27,0,0,0,6.9-3.57q2.67-3.57,2.67-9.75,0-7.09-3.14-11.61t-7.93-4.52a8.2,8.2,0,0,0-6.88,3.6Q241,185.83,241,192q0,7.05,3.13,11.57T252.07,208.08Z"/><path class="cls-1" d="M294.68,177.63h10.87v1.1a5.36,5.36,0,0,0-3.22.8q-1.05.79-1.05,3.18v26.57H299l-19.76-26.74V204.2a6.83,6.83,0,0,0,.21,1.87,1.92,1.92,0,0,0,1,1.13,6.82,6.82,0,0,0,1.1.52,16.2,16.2,0,0,0,1.81.36,4.28,4.28,0,0,1,.46.1v1.1H272.91v-1.1a9.38,9.38,0,0,0,3.29-1,3.65,3.65,0,0,0,1-3V182.71a6.83,6.83,0,0,0-.21-1.87,2,2,0,0,0-.89-1.14,4.33,4.33,0,0,0-1.08-.53c-.27-.06-.82-.18-1.65-.34a2.88,2.88,0,0,1-.47-.1v-1.1H282l17.25,23.26V182.71c0-1.57-.37-2.63-1.1-3.17a5.79,5.79,0,0,0-3.44-.81Z"/><path class="cls-1" d="M322.46,209.9a17.42,17.42,0,0,1-10-3.17l-.42-6.45h1.28a11.79,11.79,0,0,0,3.31,5.75,8,8,0,0,0,5.62,2.2,6.38,6.38,0,0,0,4.55-1.68,5.63,5.63,0,0,0,1.78-4.26,5.42,5.42,0,0,0-1.71-4.09,21.18,21.18,0,0,0-5.38-3.4,33.92,33.92,0,0,1-3.22-1.7,21.49,21.49,0,0,1-2.73-2,7.92,7.92,0,0,1-2.16-2.8,8.14,8.14,0,0,1-.73-3.47,7.23,7.23,0,0,1,2.64-5.76q2.64-2.24,7.62-2.24a18.53,18.53,0,0,1,2,.1,9.54,9.54,0,0,1,1.78.33c.55.15,1,.3,1.42.43a7.51,7.51,0,0,1,1.27.55l1,.53a8.43,8.43,0,0,1,.89.57c.39.27.61.43.68.46l.17,6.53H331q-2-7.83-8-7.83a5.47,5.47,0,0,0-4.05,1.37,4.65,4.65,0,0,0-1.37,3.44,4.86,4.86,0,0,0,1.55,3.59,19.12,19.12,0,0,0,5.07,3.2c1.11.54,1.95,1,2.52,1.25s1.38.8,2.45,1.5a12.13,12.13,0,0,1,2.47,2.06,10.7,10.7,0,0,1,1.55,2.54,7.82,7.82,0,0,1,.7,3.3,8,8,0,0,1-3.28,6.62A13,13,0,0,1,322.46,209.9Z"/><path class="cls-1" d="M356.63,209.9a16.83,16.83,0,0,1-4.3-.53,13,13,0,0,1-4-1.87,8.86,8.86,0,0,1-3.14-4.1,17.39,17.39,0,0,1-1.15-6.73v-14a7.92,7.92,0,0,0-.18-1.87,1.81,1.81,0,0,0-.87-1.14,5.6,5.6,0,0,0-1-.53c-.22-.06-.78-.18-1.68-.34a3.26,3.26,0,0,1-.42-.1v-1.1h13.77v1.1a9.12,9.12,0,0,0-3.21,1,3.75,3.75,0,0,0-1,3v14.62q0,10.41,8.44,10.41a11.28,11.28,0,0,0,2.94-.38A9.31,9.31,0,0,0,363.7,206a6.8,6.8,0,0,0,2.28-3,12.81,12.81,0,0,0,.86-5V182.71a7.31,7.31,0,0,0-.2-1.87,2,2,0,0,0-.88-1.14,4.56,4.56,0,0,0-1.1-.53c-.27-.06-.82-.18-1.65-.34a1.93,1.93,0,0,1-.44-.1v-1.1h10.89v1.1a9.63,9.63,0,0,0-3.46,1,3.56,3.56,0,0,0-1.05,3V197a17.32,17.32,0,0,1-1,6.3,8.91,8.91,0,0,1-2.87,4,12.37,12.37,0,0,1-3.91,2A15.71,15.71,0,0,1,356.63,209.9Z"/><path class="cls-1" d="M378.72,209.28v-1.1a9.3,9.3,0,0,0,3.24-1,3.68,3.68,0,0,0,.93-3V182.71a8,8,0,0,0-.17-1.87,1.81,1.81,0,0,0-.87-1.14,5.93,5.93,0,0,0-1-.53c-.22-.06-.78-.18-1.68-.34a2.9,2.9,0,0,1-.42-.1v-1.1H393v1.1a6.06,6.06,0,0,1-.75.15l-.76.12-.65.15a2.5,2.5,0,0,0-.65.23,2.83,2.83,0,0,1-.52.28,1.39,1.39,0,0,0-.51.35c-.09.11-.21.26-.35.45a1.54,1.54,0,0,0-.3.58c-.05.19-.1.44-.15.72a6.82,6.82,0,0,0-.07,1v20.95c0,1.67.29,2.72.87,3.16s1.86.65,3.84.65h3.56a7.42,7.42,0,0,0,4.65-1.28,11.47,11.47,0,0,0,3.05-4.74h1.35l-2.06,7.83Z"/><path class="cls-1" d="M436.12,177.11l.4,8.86h-1.06a9.77,9.77,0,0,0-2-5.15c-1-1.06-2.75-1.6-5.3-1.6h-2.88v25a4.59,4.59,0,0,0,.26,1.66,7.35,7.35,0,0,0,.48,1,2,2,0,0,0,1.08.66,10.59,10.59,0,0,0,1.26.36l1.81.27v1.1H415v-1.1l1.81-.27a10.57,10.57,0,0,0,1.25-.36,2,2,0,0,0,1.08-.66,7.35,7.35,0,0,0,.48-1,4.86,4.86,0,0,0,.24-1.66v-25h-2.7q-3.93,0-5.43,1.59a9.54,9.54,0,0,0-2.08,5.16h-1.05l.42-8.86,2.55.52h22Z"/><path class="cls-1" d="M467.2,205.31a4.64,4.64,0,0,0,1.36,2.07,9.22,9.22,0,0,0,2.76.8v1.1H458.17v-1.1L459,208c.42-.09.71-.15.88-.2s.4-.13.68-.23a1.73,1.73,0,0,0,.58-.33,2.62,2.62,0,0,0,.3-.46.93.93,0,0,0,.08-.62,6.18,6.18,0,0,0-.27-.86l-2.58-5.87H445.8l-2.45,5.92a3.22,3.22,0,0,0-.26.82.91.91,0,0,0,.1.64l.28.43a1.3,1.3,0,0,0,.55.33l.65.23c.15.05.43.11.85.2l.87.17v1.1H437v-1.1a19.35,19.35,0,0,0,2.15-.46,3.05,3.05,0,0,0,1.06-.68,4.71,4.71,0,0,0,1-1.68l11.85-28.1h2Zm-20.69-7.59H458l-5.89-13.57Z"/><path class="cls-1" d="M497.59,177.63h10.87v1.1a5.34,5.34,0,0,0-3.22.8q-1,.79-1.05,3.18v26.57H501.9l-19.75-26.74V204.2a6.83,6.83,0,0,0,.21,1.87,1.92,1.92,0,0,0,1,1.13,6.82,6.82,0,0,0,1.1.52,16.36,16.36,0,0,0,1.8.36,4,4,0,0,1,.47.1v1.1H475.82v-1.1a9.38,9.38,0,0,0,3.29-1,3.65,3.65,0,0,0,1-3V182.71a6.83,6.83,0,0,0-.21-1.87,2,2,0,0,0-.89-1.14,4.33,4.33,0,0,0-1.08-.53c-.27-.06-.82-.18-1.65-.34a2.88,2.88,0,0,1-.47-.1v-1.1h9.06l17.25,23.26V182.71c0-1.57-.37-2.63-1.1-3.17a5.79,5.79,0,0,0-3.44-.81Z"/><path class="cls-1" d="M530.87,209.9a16.69,16.69,0,0,1-12.17-4.63,17.12,17.12,0,0,1,.1-23.75q4.83-4.7,12.66-4.7a18.79,18.79,0,0,1,9.79,2.31q.19,4.56.37,6.79H539.8q-1.66-7.29-9.1-7.29a9.66,9.66,0,0,0-7.94,3.51q-2.87,3.51-2.86,9.7,0,6.89,3.84,11.23a12.31,12.31,0,0,0,9.63,4.35q5.48,0,8-2.7l1,1.05a12.22,12.22,0,0,1-4.65,2.95A18.94,18.94,0,0,1,530.87,209.9Z"/><path class="cls-1" d="M570.14,177.63H580v1.1a8.2,8.2,0,0,0-2.64.82,8.75,8.75,0,0,0-1.78,2.3L567,195.61v8.59a7.23,7.23,0,0,0,.22,2,1.84,1.84,0,0,0,1,1.1,8,8,0,0,0,1.32.53c.33.09,1,.21,2.09.38v1.1H557v-1.1a9.76,9.76,0,0,0,3.68-1.06,3.48,3.48,0,0,0,1-2.92v-8l-9.15-14.38a10.11,10.11,0,0,0-1.81-2.3,7.71,7.71,0,0,0-2.56-.82v-1.1h13.25v1.1a7,7,0,0,0-2.9,1.06c-.44.44-.37,1.13.2,2.06l7.43,11.9,7.24-11.9a4.22,4.22,0,0,0,.57-1.39.79.79,0,0,0-.46-.83,4,4,0,0,0-.94-.43c-.28-.08-.8-.19-1.57-.32-.38-.07-.65-.11-.81-.15Z"/></svg>